<?xml version="1.0" encoding="utf-8"?>
<!-- Generator: Adobe Illustrator 22.0.1, SVG Export Plug-In . SVG Version: 6.00 Build 0)  -->
<svg version="1.1" id="图层_1" xmlns="http://www.w3.org/2000/svg" xmlns:xlink="http://www.w3.org/1999/xlink" x="0px" y="0px"
	 viewBox="0 0 162 92" style="enable-background:new 0 0 162 92;" xml:space="preserve">
<style type="text/css">
	.st0{fill:none;stroke:#E8EDF0;stroke-linecap:round;stroke-linejoin:round;stroke-miterlimit:10;}
	.st1{fill:none;stroke:#E7EDED;stroke-miterlimit:10;}
	.st2{fill:none;stroke:#E7EDED;stroke-miterlimit:10;stroke-dasharray:2.961,0.987;}
	.st3{fill:none;stroke:#E7EDED;stroke-miterlimit:10;stroke-dasharray:3.1,1.0333;}
	.st4{fill:#E7EDED;stroke:#3A6576;stroke-miterlimit:10;}
	.st5{fill:#FFFFFF;}
	.st6{fill:#E3ECEB;}
	.st7{fill:none;stroke:#3A6576;stroke-miterlimit:10;}
	.st8{fill:#00CDAA;}
	.st9{fill:none;stroke:#3A6576;stroke-linecap:round;stroke-miterlimit:10;}
	.st10{fill:#BAF2EB;}
	.st11{fill:#E9EEF2;}
	.st12{fill:#E8EDF0;}
	.st13{fill:none;}
	.st14{fill:#E3ECEB;stroke:#3A6576;stroke-miterlimit:10;}
	.st15{fill:#FFFFFF;stroke:#3A6576;stroke-miterlimit:10;}
	.st16{fill:#3A6576;}
	.st17{font-family:'PingFangSC-Semibold-GBpc-EUC-H';}
	.st18{font-size:8px;}
	.st19{fill:#E7EDED;}
</style>
<g>
	<g>
		<path class="st0" d="M155.9,49.4h-1.5c-0.3-0.2-0.7-0.4-1.1-0.5c0.1-0.3,0.1-0.7,0.1-1c0-3.3-2.7-6-6-6c-3.2,0-5.9,2.6-6,5.8
			c-0.5-0.5-1.2-0.8-2-0.8c-1.5,0-2.7,1.1-2.9,2.5h-4.6"/>
	</g>
	<g>
		<g>
			<line class="st1" x1="114.4" y1="17.9" x2="112.9" y2="17.9"/>
			<line class="st2" x1="111.9" y1="17.9" x2="37.4" y2="17.9"/>
			<polyline class="st1" points="36.9,17.9 35.4,17.9 35.4,19.4 			"/>
			<line class="st3" x1="35.4" y1="20.4" x2="35.4" y2="65.4"/>
			<line class="st1" x1="35.4" y1="65.9" x2="35.4" y2="67.4"/>
		</g>
	</g>
	<path class="st4" d="M130.1,24.4H45.6c-2.8,0-5,2.2-5,5v53h94.5v-53C135.1,26.6,132.8,24.4,130.1,24.4z"/>
	<path class="st5" d="M129.9,28.4H45.7c-0.6,0-1,0.4-1,1v52.5h86.2V29.4C130.9,28.8,130.5,28.4,129.9,28.4z"/>
	<path class="st6" d="M137.8,87.9h-100c-2.8,0-5-2.2-5-5v3c0,2.8,2.2,5,5,5h100c2.8,0,5-2.2,5-5v-3
		C142.8,85.6,140.6,87.9,137.8,87.9z"/>
	<path class="st7" d="M137.8,90.9h-100c-2.8,0-5-2.2-5-5v-3.5h110v3.5C142.8,88.6,140.6,90.9,137.8,90.9z"/>
	<circle class="st8" cx="49.9" cy="32.4" r="1.5"/>
	<circle class="st8" cx="55.9" cy="32.4" r="1.5"/>
	<circle class="st8" cx="61.9" cy="32.4" r="1.5"/>
	<line class="st9" x1="16.4" y1="91.4" x2="22.4" y2="91.4"/>
	<line class="st9" x1="151.4" y1="91.4" x2="157.4" y2="91.4"/>
	<line class="st9" x1="24.4" y1="91.4" x2="149.4" y2="91.4"/>
	<rect x="77.9" y="84.4" class="st6" width="20" height="1"/>
	<g>
		<path class="st0" d="M6.9,64.4h1.5c0.3-0.2,0.7-0.4,1.1-0.5c-0.1-0.3-0.1-0.7-0.1-1c0-3.3,2.7-6,6-6c3.2,0,5.9,2.6,6,5.8
			c0.5-0.5,1.2-0.8,2-0.8c1.5,0,2.7,1.1,2.9,2.5h4.6"/>
	</g>
	<circle class="st10" cx="63.1" cy="5.6" r="5.2"/>
	<circle class="st11" cx="26.1" cy="12.6" r="1.2"/>
	<circle class="st11" cx="144.1" cy="51.6" r="1.2"/>
	<circle class="st11" cx="90.6" cy="8.6" r="2.8"/>
	<g>
		<rect x="146.4" y="63.1" class="st10" width="8.5" height="3.1"/>
		
			<rect x="146.4" y="63.1" transform="matrix(6.123234e-17 -1 1 6.123234e-17 86.0216 215.2631)" class="st10" width="8.5" height="3.1"/>
	</g>
	<g>
		<rect x="16.4" y="73" class="st12" width="5" height="1.8"/>
		
			<rect x="16.4" y="73" transform="matrix(6.123234e-17 -1 1 6.123234e-17 -54.9784 92.7631)" class="st12" width="5" height="1.8"/>
	</g>
	<path class="st10" d="M18.6,36.3c1,0,2-0.6,2.4-1.6c0.4-1,0.2-2.1-0.6-2.8c-0.7-0.7-1.8-1-2.8-0.6c-1,0.4-1.6,1.3-1.6,2.4
		C16,35.1,17.2,36.3,18.6,36.3z M12.6,33.7c0-0.4,0-0.8,0.1-1.3c0.7-0.1,1.4-0.5,1.7-1.2c0.4-0.7,0.4-1.5,0.1-2.2
		c0.6-0.6,1.4-1.1,2.2-1.4c0.4,0.6,1.1,1,1.8,1c0.7,0,1.4-0.4,1.9-1c0.8,0.3,1.6,0.8,2.2,1.4c-0.3,0.7-0.3,1.5,0.1,2.1
		c0.3,0.6,0.9,1.1,1.7,1.2c0.2,0.9,0.2,1.9,0,2.8c-0.7,0.1-1.3,0.5-1.6,1.2c-0.3,0.6-0.4,1.3-0.2,2c-0.7,0.6-1.4,1.1-2.3,1.4
		c-0.4-0.5-1.1-0.8-1.7-0.8c-0.7,0-1.3,0.3-1.7,0.9c-0.9-0.3-1.7-0.7-2.3-1.3c0.2-0.7,0.2-1.4-0.2-2c-0.3-0.6-1-1.1-1.7-1.2
		C12.6,34.7,12.6,34.2,12.6,33.7z"/>
	<rect x="114.5" y="15.9" class="st13" width="13.9" height="16"/>
	<path class="st14" d="M55.8,64.2h-2v-6.6c0-2.8-2.2-5-5-5h-3c-2.8,0-5,2.2-5,5v6.6h-2v-6.6c0-3.9,3.1-7,7-7h3c3.9,0,7,3.1,7,7V64.2
		z"/>
	<path class="st15" d="M59.8,81.9h-25v-19c0-1.1,0.9-2,2-2h21c1.1,0,2,0.9,2,2V81.9z"/>
	<path class="st6" d="M57.8,61.4h-2c0.8,0,1.5,0.7,1.5,1.5v18.5h2V62.9C59.3,62,58.6,61.4,57.8,61.4z"/>
	<circle class="st8" cx="47.3" cy="69.4" r="3"/>
	<rect x="46.4" y="70.9" class="st8" width="2" height="6"/>
	<path class="st15" d="M110,22.2c0-4.4,0-8.5,0-13.8c5-1.6,10.5-3.5,18-5.2c7.5,1.7,13,3.6,18,5.2c0,5.3,0,9.4,0,13.8
		c0,12.4-10.1,19.2-18,21.3C120.1,41.4,110,34.6,110,22.2z"/>
	<path class="st8" d="M113.5,22.5c0-3.5,0-6.9,0-11.1c4-1.3,8.4-2.8,14.4-4.1c6,1.4,10.4,2.9,14.4,4.1c0,4.2,0,7.5,0,11.1
		c0,9.9-8.1,15.4-14.4,17.1C121.6,37.8,113.5,32.4,113.5,22.5z"/>
	<text transform="matrix(1 0 0 1 113.8044 24.6208)" class="st16 st17 st18">HTTPS</text>
	<rect x="74.9" y="36.4" class="st15" width="27" height="39"/>
	<rect x="79.4" y="38.9" class="st15" width="27" height="39"/>
	<circle class="st6" cx="93.4" cy="50.9" r="7.5"/>
	<rect x="85.4" y="62.9" class="st19" width="17" height="2"/>
	<rect x="85.4" y="66.9" class="st19" width="17" height="2"/>
	<rect x="85.4" y="70.9" class="st19" width="14" height="2"/>
</g>
</svg>
