<?xml version="1.0" encoding="utf-8"?>
<!-- Generator: Adobe Illustrator 16.0.0, SVG Export Plug-In . SVG Version: 6.00 Build 0)  -->
<!DOCTYPE svg PUBLIC "-//W3C//DTD SVG 1.1//EN" "http://www.w3.org/Graphics/SVG/1.1/DTD/svg11.dtd">
<svg version="1.1" id="图层_1" xmlns="http://www.w3.org/2000/svg" xmlns:xlink="http://www.w3.org/1999/xlink" x="0px" y="0px"
	 width="103.295px" height="29.396px" viewBox="0 0 103.295 29.396" enable-background="new 0 0 103.295 29.396"
	 xml:space="preserve">
<g>
	<g>
		<path fill="#FFFFFF" d="M7.019,11.57H3.271v3.945h5.047l-1.232,2.678H3.271v4.381L0,24.251V8.894h11.418L7.019,11.57z"/>
		<path fill="#FFFFFF" d="M21.267,21.542l-3.183,2.709v-1.676h-0.05c-0.819,1.296-1.94,1.943-3.361,1.943
			c-2.551,0-3.826-1.54-3.826-4.62v-5.074l3.202-1.539v6.315c0,1.64,0.641,2.459,1.923,2.459c0.642,0,1.153-0.225,1.537-0.674
			c0.383-0.45,0.575-1.058,0.575-1.824v-6.276h3.183V21.542z"/>
		<path fill="#FFFFFF" d="M34.592,22.201l-3.183,2.05v-6.117c0-1.771-0.639-2.672-1.914-2.672c-0.591,0-0.789-0.13-1.517,0.724
			c-0.403,0.473-0.604,1.075-0.604,1.81v6.256h-3.202V14.96l3.202-1.675v1.745h0.039c0.8-1.342,1.977-2.013,3.53-2.013
			c2.432,0,3.648,1.507,3.648,4.521V22.201z"/>
	</g>
	<g>
		<path fill="#FFFFFF" d="M40.372,22.896L38.444,8.894h5.304c5.453,0,8.18,2.495,8.18,7.485c0,2.373-0.764,4.278-2.29,5.716
			C48.11,23.532,42.785,22.896,40.372,22.896L40.372,22.896z M41.716,11.57l0.688,9.312l0,0c1.553,0,3.87,0.229,4.756-0.696
			c0.885-0.925,1.328-2.178,1.328-3.757c0-1.527-0.463-2.719-1.388-3.575c-0.926-0.855-2.129-1.283-3.609-1.283H41.716z"/>
		<path fill="#FFFFFF" d="M61.05,19.67h-4.333c0.112,1.699,1.137,2.549,3.073,2.549c1.21,0,2.277-0.298,3.202-0.893v2.35
			c-0.492,0.277-1.06,0.486-1.703,0.626c-0.449,0.099-0.937,0.163-1.46,0.194c-0.246,0.016-0.501,0.022-0.763,0.022
			c-0.554,0-1.069-0.05-1.545-0.149c-1.022-0.213-1.864-0.655-2.525-1.328c-0.968-0.984-1.452-2.356-1.452-4.114
			c0-1.752,0.516-3.174,1.547-4.269c1.031-1.094,2.326-1.641,3.886-1.641c1.554,0,2.769,0.471,3.645,1.413
			c0.875,0.941,1.313,2.235,1.313,3.882L61.05,19.67z M60.95,17.668c0-1.64-0.664-2.459-1.993-2.459
			c-0.549,0-1.034,0.225-1.457,0.674c-0.424,0.449-0.688,1.045-0.793,1.785H60.95z"/>
		<path fill="#FFFFFF" d="M69.219,22.933l-3.202,1.318l0,0V10.894l3.189-2.081l0.013,6.148h0.04
			c0.839-1.296,2.035-1.943,3.589-1.943c1.381,0,2.464,0.482,3.247,1.447c0.783,0.966,1.175,2.297,1.175,3.996
			c0,1.817-0.449,3.281-1.349,4.392c-0.898,1.11-2.092,1.666-3.579,1.666c-1.361,0-2.39-0.529-3.083-1.586H69.219z M69.169,19.512
			c0,0.721,0.215,1.325,0.645,1.814s0.975,0.733,1.636,0.733c0.8,0,1.423-0.311,1.869-0.932s0.669-1.501,0.669-2.638
			c0-0.945-0.203-1.684-0.609-2.216s-0.986-0.798-1.74-0.798c-0.714,0-1.304,0.268-1.77,0.803s-0.699,1.223-0.699,2.063V19.512z"/>
		<path fill="#FFFFFF" d="M89.792,23.036l-3.183,1.215v-1.676h-0.05c-0.82,1.296-1.94,1.943-3.361,1.943
			c-2.552,0-3.827-1.54-3.827-4.62v-4.922l3.203-1.691v6.315c0,1.64,0.641,2.459,1.923,2.459c0.642,0,1.153-0.225,1.537-0.674
			c0.383-0.45,0.575-1.058,0.575-1.824v-6.276h3.183V23.036z"/>
		<path fill="#FFFFFF" d="M103.295,23.041c0,2.036-0.58,3.604-1.739,4.705c-1.16,1.101-2.831,1.65-5.013,1.65
			c-1.48,0-2.656-0.212-3.529-0.635v-2.736c1.137,0.661,2.283,0.991,3.44,0.991c1.144,0,2.037-0.306,2.682-0.917
			s0.967-1.459,0.967-2.543v-0.912h-0.05c-0.772,1.249-1.923,1.874-3.45,1.874c-1.381,0-2.486-0.492-3.316-1.478
			c-0.829-0.984-1.244-2.304-1.244-3.956c0-1.844,0.458-3.316,1.373-4.417c0.916-1.101,2.117-1.65,3.604-1.65
			c1.349,0,2.359,0.525,3.033,1.576h0.05v-1.309l3.192,1.895V23.041z M100.133,18.064c0-0.728-0.221-1.341-0.659-1.84
			c-0.44-0.499-0.993-0.748-1.661-0.748c-0.78,0-1.396,0.306-1.849,0.917c-0.453,0.611-0.68,1.469-0.68,2.573
			c0,0.958,0.218,1.713,0.654,2.265c0.437,0.553,1.015,0.828,1.735,0.828c0.727,0,1.318-0.281,1.774-0.843s0.685-1.292,0.685-2.191
			V18.064z"/>
	</g>
	<g>
		<polyline fill="#FFFFFF" points="30.73,8.343 24.95,0 43.32,3.337 		"/>
		<polyline fill="#FFFFFF" points="57.205,8.343 62.985,0 44.604,3.322 		"/>
	</g>
</g>
</svg>
