<?xml version="1.0" encoding="utf-8"?>
<!-- Generator: Adobe Illustrator 22.1.0, SVG Export Plug-In . SVG Version: 6.00 Build 0)  -->
<svg version="1.1" id="图层_1" xmlns="http://www.w3.org/2000/svg" xmlns:xlink="http://www.w3.org/1999/xlink" x="0px" y="0px"
	 viewBox="0 0 162 92" style="enable-background:new 0 0 162 92;" xml:space="preserve">
<style type="text/css">
	.st0{fill:none;stroke:#E8EDF0;stroke-linecap:round;stroke-linejoin:round;stroke-miterlimit:10;}
	.st1{fill:none;stroke:#E7EDED;stroke-miterlimit:10;}
	.st2{fill:none;stroke:#E7EDED;stroke-miterlimit:10;stroke-dasharray:2.961,0.987;}
	.st3{fill:none;stroke:#E7EDED;stroke-miterlimit:10;stroke-dasharray:3.1,1.0333;}
	.st4{fill:#E7EDED;stroke:#3A6576;stroke-miterlimit:10;}
	.st5{fill:#FFFFFF;}
	.st6{fill:#E3ECEB;}
	.st7{fill:none;stroke:#3A6576;stroke-miterlimit:10;}
	.st8{fill:#00CDAA;}
	.st9{fill:#FFFFFF;stroke:#3A6576;stroke-miterlimit:10;}
	.st10{enable-background:new    ;}
	.st11{fill:#E7EDED;}
	.st12{fill:none;stroke:#3A6576;stroke-linecap:round;stroke-miterlimit:10;}
	.st13{fill:#BAF2EB;}
	.st14{fill:#E9EEF2;}
	.st15{fill:#E8EDF0;}
	.st16{fill:none;}
	.st17{clip-path:url(#SVGID_2_);fill:#00CDAA;}
	.st18{fill:#FFFFFF;stroke:#00CDAA;stroke-linecap:round;stroke-linejoin:round;stroke-miterlimit:10;}
</style>
<g>
	<g>
		<path class="st0" d="M153.1,49.5h-1.5c-0.3-0.2-0.7-0.4-1.1-0.5c0.1-0.3,0.1-0.7,0.1-1c0-3.3-2.7-6-6-6c-3.2,0-5.9,2.6-6,5.8
			c-0.5-0.5-1.2-0.8-2-0.8c-1.5,0-2.7,1.1-2.9,2.5h-4.6"/>
	</g>
	<g>
		<g>
			<line class="st1" x1="111.6" y1="18" x2="110.1" y2="18"/>
			<line class="st2" x1="109.1" y1="18" x2="34.6" y2="18"/>
			<polyline class="st1" points="34.1,18 32.6,18 32.6,19.5 			"/>
			<line class="st3" x1="32.6" y1="20.5" x2="32.6" y2="65.5"/>
			<line class="st1" x1="32.6" y1="66" x2="32.6" y2="67.5"/>
		</g>
	</g>
	<path class="st4" d="M127.3,24.5H42.8c-2.8,0-5,2.2-5,5v53h94.5v-53C132.3,26.7,130.1,24.5,127.3,24.5z"/>
	<path class="st5" d="M127.1,28.5H42.9c-0.6,0-1,0.4-1,1V82h86.2V29.5C128.1,28.9,127.7,28.5,127.1,28.5z"/>
	<path class="st6" d="M135,88H35c-2.8,0-5-2.2-5-5v3c0,2.8,2.2,5,5,5h100c2.8,0,5-2.2,5-5v-3C140,85.8,137.8,88,135,88z"/>
	<path class="st7" d="M135,91H35c-2.8,0-5-2.2-5-5v-3.5h110V86C140,88.8,137.8,91,135,91z"/>
	<circle class="st8" cx="47.1" cy="32.5" r="1.5"/>
	<circle class="st8" cx="53.1" cy="32.5" r="1.5"/>
	<circle class="st8" cx="59.1" cy="32.5" r="1.5"/>
	<path class="st7" d="M107.6,57c0,0-9.6,11.5-21.5,11.5S64.6,57,64.6,57s9.6-11.5,21.5-11.5S107.6,57,107.6,57z"/>
	<path class="st9" d="M54.6,82.5h-18c-1.7,0-3-1.3-3-3v-16c0-1.7,1.3-3,3-3h18c1.6,0,3,1.3,3,3v16C57.6,81.2,56.3,82.5,54.6,82.5z"
		/>
	<path class="st6" d="M54.6,61h-0.5v0.1c1.1,0.2,2,1.2,2,2.4v16c0,1.2-0.9,2.2-2,2.4V82h0.5c1.4,0,2.5-1.1,2.5-2.5v-16
		C57.1,62.1,56,61,54.6,61z"/>
	<circle class="st5" cx="90.1" cy="52.5" r="2.5"/>
	<path class="st8" d="M42.8,71.9c-0.5,0.2-3.6,1.5-1.4,3.6c1.2,1.2,3.1,0.4,3.5-0.7C45,74,45,68.4,45,67.6s2.3-4.9,6.5-2.6
		c0,0,4.7,2.8-0.8,7.2c0,0-1.9,0.2-1.4-1.4c-0.1-0.5,2.3-1.5,2-3c-0.5-1.8-3.4-2.3-4.1-0.1v7c0,1-1.9,4.2-6,2.9c0,0-2.7-1.2-2.6-4.1
		c0.1-1.3,1.4-2.9,2.8-3.5C42.9,69.6,43.5,71.2,42.8,71.9z"/>
	<path class="st9" d="M49.9,60H36.8c-1.2,0-2.2-0.9-2.2-2.2V46.2c0-1.2,0.9-2.2,2.2-2.2h13.1c1.2,0,2.2,0.9,2.2,2.2v11.6
		C52.1,59,51.1,60,49.9,60z"/>
	<path class="st6" d="M49.9,44.5h-0.4v0.1c0.8,0.1,1.5,0.9,1.5,1.7v11.4c0,0.9-0.7,1.6-1.5,1.7v0.1h0.4c1,0,1.8-0.8,1.8-1.8V46.3
		C51.7,45.3,50.9,44.5,49.9,44.5z"/>
	<g>
		<path class="st7" d="M104.5,48.5c-4.6-3-11.2-6-18.4-6s-13.8,3-18.4,6"/>
		<path class="st9" d="M67.7,44.5"/>
		<path class="st9" d="M104.5,44.5"/>
	</g>
	<path class="st9" d="M147.6,13h-38c-1.1,0-2,0.9-2,1.9v19c0,1,0.9,1.9,2,1.9h3v4.7l5-4.7h30c1.1,0,2-0.9,2-1.9v-19
		C149.6,13.9,148.7,13,147.6,13z"/>
	<path class="st9" d="M145.5,82.4h-44.8c-0.6,0-1.1-0.5-1.1-1.1v-8.8c0-0.6,0.5-1.1,1.1-1.1h44.8c0.6,0,1.1,0.5,1.1,1.1v8.8
		C146.6,81.9,146.1,82.4,145.5,82.4z"/>
	<path class="st9" d="M136.3,71.4h-18.6c-0.2,0-0.5-1-0.5-2.2V51.5c0-1.2,0.2-2.2,0.5-2.2h18.6c0.2,0,0.5,1,0.5,2.2v17.7
		C136.8,70.4,136.5,71.4,136.3,71.4z"/>
	<g class="st10">
		<path class="st8" d="M107.7,73.7v3.7c0,0.6-0.1,1.1-0.4,1.4s-0.7,0.5-1.4,0.5c-0.5,0-1-0.2-1.2-0.5c-0.3-0.3-0.4-0.7-0.4-1.2v-0.2
			h0.9v0.2c0,0.6,0.3,0.9,0.8,0.9c0.3,0,0.5-0.1,0.7-0.3c0.1-0.2,0.2-0.5,0.2-0.8v-3.6L107.7,73.7L107.7,73.7z"/>
		<path class="st8" d="M111.7,75.6c0.2,0.2,0.4,0.6,0.4,1.1v2.5h-0.8v-0.5c-0.2,0.2-0.3,0.3-0.6,0.4c-0.2,0.1-0.5,0.2-0.9,0.2
			s-0.7-0.1-1-0.3c-0.2-0.2-0.4-0.5-0.4-0.8c0-0.4,0.2-0.8,0.5-1s0.8-0.3,1.3-0.4h0.9v-0.2c0-0.5-0.3-0.8-0.8-0.8
			c-0.2,0-0.4,0-0.6,0.1s-0.3,0.2-0.3,0.5l-0.9-0.1c0.1-0.4,0.3-0.7,0.6-0.9c0.3-0.2,0.7-0.3,1.2-0.3
			C111,75.1,111.4,75.3,111.7,75.6z M110.4,77.4c-0.7,0-1,0.3-1,0.7c0,0.1,0.1,0.2,0.2,0.3s0.3,0.1,0.5,0.1c0.3,0,0.6-0.1,0.8-0.3
			c0.2-0.2,0.3-0.4,0.3-0.8v-0.2L110.4,77.4z"/>
		<path class="st8" d="M113.5,75.2l0.9,2.8l0.9-2.8h0.9l-1.4,3.9H114l-1.4-3.9H113.5z"/>
		<path class="st8" d="M119.9,75.6c0.2,0.2,0.4,0.6,0.4,1.1v2.5h-0.8v-0.5c-0.2,0.2-0.3,0.3-0.6,0.4c-0.2,0.1-0.5,0.2-0.9,0.2
			s-0.7-0.1-1-0.3c-0.2-0.2-0.4-0.5-0.4-0.8c0-0.4,0.2-0.8,0.5-1s0.8-0.3,1.3-0.4h0.9v-0.2c0-0.5-0.3-0.8-0.8-0.8
			c-0.2,0-0.4,0-0.6,0.1s-0.3,0.2-0.3,0.5l-0.9-0.1c0.1-0.4,0.3-0.7,0.6-0.9c0.3-0.2,0.7-0.3,1.2-0.3
			C119.2,75.1,119.6,75.3,119.9,75.6z M118.6,77.4c-0.7,0-1,0.3-1,0.7c0,0.1,0.1,0.2,0.2,0.3s0.3,0.1,0.5,0.1c0.3,0,0.6-0.1,0.8-0.3
			c0.2-0.2,0.3-0.4,0.3-0.8v-0.2L118.6,77.4z"/>
		<path class="st8" d="M124.6,74c0.4,0.3,0.6,0.7,0.7,1.3h-0.9c-0.1-0.3-0.2-0.6-0.4-0.7c-0.2-0.2-0.5-0.2-0.9-0.2
			c-0.3,0-0.6,0-0.8,0.1s-0.3,0.3-0.3,0.6c0,0.2,0.1,0.4,0.4,0.6c0.1,0.1,0.4,0.2,0.9,0.3c0.7,0.2,1.2,0.4,1.4,0.5
			c0.5,0.3,0.7,0.7,0.7,1.2s-0.2,0.9-0.6,1.2c-0.4,0.3-0.9,0.4-1.6,0.4s-1.2-0.1-1.6-0.4c-0.5-0.3-0.7-0.8-0.7-1.5h0.9
			c0.1,0.4,0.2,0.7,0.4,0.9c0.2,0.2,0.5,0.2,1,0.2c0.4,0,0.7-0.1,0.9-0.2s0.3-0.3,0.3-0.5c0-0.3-0.2-0.5-0.5-0.7
			c-0.1-0.1-0.5-0.2-1.1-0.4c-0.7-0.2-1.1-0.4-1.2-0.5c-0.4-0.2-0.6-0.6-0.6-1.1s0.2-0.9,0.6-1.1c0.4-0.3,0.9-0.4,1.4-0.4
			C123.8,73.6,124.3,73.8,124.6,74z"/>
		<path class="st8" d="M129,75.5c0.3,0.2,0.5,0.6,0.6,1.1h-0.9c-0.1-0.2-0.2-0.4-0.3-0.6c-0.2-0.1-0.4-0.2-0.6-0.2
			c-0.3,0-0.6,0.1-0.7,0.4c-0.2,0.2-0.3,0.6-0.3,1s0.1,0.8,0.3,1s0.4,0.4,0.7,0.4c0.6,0,0.9-0.3,1-0.9h0.9c-0.1,0.5-0.3,0.9-0.6,1.2
			c-0.3,0.2-0.7,0.4-1.2,0.4c-0.6,0-1.1-0.2-1.4-0.6s-0.5-0.9-0.5-1.5s0.2-1.1,0.5-1.4c0.3-0.4,0.8-0.6,1.4-0.6
			C128.3,75.1,128.7,75.2,129,75.5z"/>
		<path class="st8" d="M132.7,75.2v0.9c-0.2-0.1-0.4-0.1-0.6-0.1c-0.2,0-0.4,0.1-0.6,0.3c-0.2,0.2-0.3,0.5-0.3,0.8v2.1h-0.9v-3.9
			h0.9v0.6c0.1-0.2,0.2-0.3,0.4-0.5c0.2-0.1,0.4-0.2,0.6-0.2C132.4,75.1,132.5,75.2,132.7,75.2z"/>
		<path class="st8" d="M134.2,73.8c0.1,0.1,0.2,0.2,0.2,0.4c0,0.2-0.1,0.3-0.2,0.4c-0.1,0.1-0.2,0.2-0.4,0.2s-0.3-0.1-0.4-0.2
			c-0.1-0.1-0.2-0.2-0.2-0.4c0-0.2,0.1-0.3,0.2-0.4c0.1-0.1,0.2-0.2,0.4-0.2C133.9,73.6,134,73.7,134.2,73.8z M134.2,75.2v3.9h-0.9
			v-3.9H134.2z"/>
		<path class="st8" d="M138.6,75.7c0.3,0.4,0.5,0.9,0.5,1.5s-0.2,1.1-0.4,1.4c-0.3,0.4-0.8,0.6-1.3,0.6s-0.8-0.2-1.2-0.6v2h-0.9
			v-5.4h0.8v0.4c0.3-0.3,0.7-0.5,1.2-0.5C137.8,75.1,138.2,75.3,138.6,75.7z M136.3,76.2c-0.2,0.2-0.2,0.5-0.2,0.9v0.1
			c0,0.4,0.1,0.7,0.3,1c0.2,0.2,0.4,0.3,0.7,0.3c0.4,0,0.7-0.1,0.8-0.4c0.2-0.2,0.2-0.6,0.2-1s-0.1-0.7-0.2-1
			c-0.2-0.3-0.5-0.4-0.8-0.4C136.7,75.8,136.5,76,136.3,76.2z"/>
		<path class="st8" d="M141,75.2h0.9v0.7H141v2.2c0,0.1,0,0.2,0.1,0.2c0,0,0.1,0.1,0.2,0.1h0.5v0.7h-0.7c-0.3,0-0.6-0.1-0.7-0.3
			c-0.2-0.2-0.2-0.4-0.2-0.7v-2.2h-0.7v-0.7h0.7v-0.9l0.9-0.4v1.3C141.1,75.2,141,75.2,141,75.2z"/>
	</g>
	<rect x="128.6" y="19" class="st11" width="17" height="2"/>
	<rect x="128.6" y="23" class="st11" width="17" height="2"/>
	<rect x="128.6" y="27" class="st11" width="14" height="2"/>
	<line class="st12" x1="13.6" y1="91.5" x2="19.6" y2="91.5"/>
	<line class="st12" x1="148.6" y1="91.5" x2="154.6" y2="91.5"/>
	<line class="st12" x1="21.6" y1="91.5" x2="146.6" y2="91.5"/>
	<rect x="75.1" y="84.5" class="st6" width="20" height="1"/>
	<g>
		<path class="st0" d="M4.1,64.5h1.5C6,64.3,6.3,64.1,6.7,64c-0.1-0.3-0.1-0.7-0.1-1c0-3.3,2.7-6,6-6c3.2,0,5.9,2.6,6,5.8
			c0.5-0.5,1.2-0.8,2-0.8c1.5,0,2.7,1.1,2.9,2.5h4.6"/>
	</g>
	<circle class="st13" cx="60.4" cy="5.8" r="5.2"/>
	<circle class="st14" cx="23.4" cy="12.8" r="1.2"/>
	<circle class="st14" cx="141.4" cy="51.8" r="1.2"/>
	<circle class="st14" cx="87.9" cy="8.8" r="2.8"/>
	<g>
		<rect x="147.9" y="55.9" class="st13" width="8.5" height="3.1"/>
		<rect x="150.6" y="53.2" class="st13" width="3.1" height="8.5"/>
	</g>
	<g>
		<rect x="122.5" y="1.6" class="st15" width="5" height="1.8"/>
		<rect x="124.1" y="0" class="st15" width="1.8" height="5"/>
	</g>
	<path class="st13" d="M15.8,36.4c1,0,2-0.6,2.4-1.6c0.4-1,0.2-2.1-0.6-2.8c-0.7-0.7-1.8-1-2.8-0.6s-1.6,1.3-1.6,2.4
		C13.2,35.3,14.4,36.4,15.8,36.4z M9.8,33.8c0-0.4,0-0.8,0.1-1.3c0.7-0.1,1.4-0.5,1.7-1.2c0.4-0.7,0.4-1.5,0.1-2.2
		c0.6-0.6,1.4-1.1,2.2-1.4c0.4,0.6,1.1,1,1.8,1c0.7,0,1.4-0.4,1.9-1c0.8,0.3,1.6,0.8,2.2,1.4c-0.3,0.7-0.3,1.5,0.1,2.1
		c0.3,0.6,0.9,1.1,1.7,1.2c0.2,0.9,0.2,1.9,0,2.8c-0.7,0.1-1.3,0.5-1.6,1.2c-0.3,0.6-0.4,1.3-0.2,2c-0.7,0.6-1.4,1.1-2.3,1.4
		c-0.4-0.5-1.1-0.8-1.7-0.8c-0.7,0-1.3,0.3-1.7,0.9c-0.9-0.3-1.7-0.7-2.3-1.3c0.2-0.7,0.2-1.4-0.2-2c-0.3-0.6-1-1.1-1.7-1.2
		C9.9,34.8,9.8,34.3,9.8,33.8z"/>
	<path class="st8" d="M120.9,24.9c-0.1-0.1-0.4-0.2-0.8-0.3c-0.6-0.1-1-0.3-1.2-0.4s-0.4-0.3-0.5-0.5s-0.2-0.4-0.2-0.6
		s0-0.4,0.1-0.6s0.2-0.3,0.4-0.4c0.1-0.1,0.3-0.2,0.5-0.2c0.2-0.1,0.4-0.1,0.7-0.1c0.4,0,0.7,0.1,1,0.2s0.5,0.3,0.6,0.4
		c0.1,0.2,0.3,0.6,0.3,0.6s0,0,0,0.1c0,0,0,0-0.1,0l-0.6,0.1c-0.1,0-0.1,0-0.1-0.1c0,0-0.1-0.3-0.3-0.5c-0.2-0.1-0.4-0.2-0.7-0.2
		c-0.4,0-0.6,0.1-0.8,0.2c-0.2,0.1-0.2,0.3-0.2,0.4s0,0.2,0.1,0.3c0.1,0.1,0.2,0.2,0.3,0.2c0.1,0,0.3,0.1,0.7,0.2
		c0.6,0.2,1,0.3,1.2,0.4s0.4,0.2,0.5,0.4c0.1,0.2,0.2,0.4,0.2,0.7c0,0.3-0.1,0.5-0.2,0.8c-0.2,0.2-0.4,0.4-0.7,0.5
		c-0.3,0.1-0.6,0.2-1,0.2c-0.6,0-1.1-0.1-1.4-0.4s-0.6-1-0.6-1s0,0,0-0.1c0,0,0,0,0.1,0l0.6-0.1c0.1,0,0.1,0,0.1,0.1
		c0,0,0.1,0.5,0.3,0.6c0.2,0.2,0.5,0.3,0.9,0.3s0.6-0.1,0.8-0.2c0.2-0.1,0.3-0.3,0.3-0.5C121.1,25.2,121,25,120.9,24.9L120.9,24.9z
		 M123.6,26.4c0,0.1,0,0.1,0,0.2l-0.1,0.2l-0.1,0.1l-4.2,2.6c-0.1,0-0.1,0.1-0.2,0.1s-0.1,0-0.1,0c-0.1,0-0.1,0-0.1,0
		c-0.1,0-0.1,0-0.2-0.1l-1.8-0.9c0,0,0,0,0-0.1c0,0,0,0,0-0.1l0.3-0.6c0,0,0,0,0.1,0c0,0,0,0,0.1,0l1.6,0.8c0.1,0,0.1,0,0.2,0
		l3.8-2.3l0.1-0.1v-4.4c0-0.1,0-0.1-0.1-0.1l-3.8-2.2c-0.1,0-0.1,0-0.2,0l-3.9,2.2l-0.1,0.1v4.5c0,0.1,0,0.1,0.1,0.2
		c0,0,0.8,0.7,1.1,0.7c0.3,0,0.6-0.3,0.6-0.3s0.1-0.1,0.1-0.2v-4.9c0-0.1,0-0.1,0.1-0.1h0.7c0.1,0,0.1,0,0.1,0.1v5
		c0,0.1,0,0.1,0,0.2c0,0,0,0.1-0.1,0.2c0,0-0.6,0.8-1.5,0.8c-0.7,0-1.4-0.4-2-1.2c-0.1-0.1-0.1-0.2-0.1-0.2c0-0.1,0-0.1,0-0.2v-4.9
		c0-0.1,0-0.1,0-0.2l0.1-0.2l0.1-0.1l4.3-2.5c0,0,0.1-0.1,0.2-0.1h0.3c0,0,0.1,0,0.2,0.1l4.2,2.5l0.1,0.1l0.1,0.2c0,0,0,0.1,0,0.2
		L123.6,26.4L123.6,26.4z M125.6,20.1c0-0.1,0-0.1-0.1-0.1l-6.8-3.9c-0.1,0-0.1,0-0.2,0l-6.8,3.9l-0.1,0.1v7.8c0,0.1,0,0.1,0.1,0.1
		l6.8,3.9c0.1,0,0.1,0,0.2,0l6.8-3.9l0.1-0.1V20.1L125.6,20.1z"/>
	<rect x="111.7" y="16" class="st16" width="13.9" height="16"/>
	<path class="st8" d="M45.7,49.3c-2-1.7-4.8-1.6-6.3,0.2s-1,4.5,1,6.2s4.8,1.6,6.3-0.2S47.7,51,45.7,49.3z M45.6,52.2
		c-0.5,0.6-1.6,0.6-2.3,0c-0.8-0.6-0.9-1.6-0.4-2.3c0.5-0.6,1.6-0.6,2.3,0S46.1,51.6,45.6,52.2z"/>
	<ellipse transform="matrix(0.9704 -0.2417 0.2417 0.9704 -10.2511 13.0337)" class="st8" cx="48" cy="48.3" rx="1.5" ry="1.7"/>
	<g>
		<g>
			<defs>
				<rect id="SVGID_1_" x="119.8" y="50.1" width="14.2" height="19.4"/>
			</defs>
			<clipPath id="SVGID_2_">
				<use xlink:href="#SVGID_1_"  style="overflow:visible;"/>
			</clipPath>
			<path class="st17" d="M125.1,69.4c3.5,0.2,8.8-0.1,8.9-1.8c0,0-0.2,0.6-2.9,1.1c-3,0.6-6.6,0.5-8.8,0.1
				C122.4,68.9,122.8,69.3,125.1,69.4 M128.9,50.1c0,0,2,2-1.9,5.1c-3.1,2.5-0.7,3.9,0,5.5c-1.8-1.7-3.2-3.1-2.3-4.5
				C126,54.3,129.7,53.3,128.9,50.1 M131.1,64.3c3.6-1.9,1.9-3.7,0.8-3.5c-0.3,0.1-0.4,0.1-0.4,0.1s0.1-0.2,0.3-0.2
				C134,59.9,135.8,63.1,131.1,64.3C131,64.4,131,64.4,131.1,64.3 M124.8,60.8c0,0-3.5,0.8-1.2,1.1c1,0.1,2.9,0.1,4.6,0
				c1.5-0.1,2.9-0.4,2.9-0.4s-0.5,0.2-0.9,0.5c-3.6,0.9-10.5,0.5-8.5-0.5C123.4,60.7,124.8,60.8,124.8,60.8 M132.8,66.7
				c0,0,0.5,0.4-0.6,0.8c-2.2,0.7-9.1,0.9-11,0c-0.7-0.3,0.6-0.7,1-0.8c0.4-0.1,0.7-0.1,0.7-0.1c-0.8-0.5-5,1.1-2.1,1.5
				C128.5,69.4,134.8,67.6,132.8,66.7 M127.8,59.4c0.9,1.1-0.2,2-0.2,2s2.4-1.2,1.3-2.8c-1-1.4-1.8-2.1,2.4-4.6
				C131.3,54.1,124.7,55.8,127.8,59.4 M123.9,63c0,0-0.8,0.6,0.4,0.7c1.6,0.2,2.9,0.2,5.2-0.2c0,0,0.3,0.3,0.8,0.5
				C125.8,65.3,120.7,64.1,123.9,63 M124.4,65.1c0,0-0.7,0.4,0.5,0.6c1.5,0.2,2.3,0.2,4-0.2c0,0,0.4,0.3,1.1,0.5
				C126.2,67.6,121.4,65.9,124.4,65.1"/>
		</g>
	</g>
</g>
<g>
	<circle class="st8" cx="85.4" cy="56.8" r="7.1"/>
	<path class="st18" d="M90.3,55.6c0,0-1.7,4.5-8.8,5.1c0,0-2.4-2.7,0.2-5.1c2.2-2,8.7-0.1,9.5-5c0,0,3.4,8-1.4,10.6
		c-1.9,1-7.1,0.4-7.1,0.4S89.9,59.8,90.3,55.6z"/>
	<circle class="st5" cx="81.3" cy="61.6" r="0.7"/>
</g>
</svg>
