<?xml version="1.0" encoding="utf-8"?>
<!-- Generator: Adobe Illustrator 22.0.1, SVG Export Plug-In . SVG Version: 6.00 Build 0)  -->
<svg version="1.1" id="图层_1" xmlns="http://www.w3.org/2000/svg" xmlns:xlink="http://www.w3.org/1999/xlink" x="0px" y="0px"
	 viewBox="0 0 162 92" style="enable-background:new 0 0 162 92;" xml:space="preserve">
<style type="text/css">
	.st0{fill:none;stroke:#E8EDF0;stroke-linecap:round;stroke-linejoin:round;stroke-miterlimit:10;}
	.st1{fill:none;stroke:#E7EDED;stroke-miterlimit:10;}
	.st2{fill:none;stroke:#E7EDED;stroke-miterlimit:10;stroke-dasharray:2.961,0.987;}
	.st3{fill:none;stroke:#E7EDED;stroke-miterlimit:10;stroke-dasharray:3.1,1.0333;}
	.st4{fill:#E7EDED;stroke:#3A6576;stroke-miterlimit:10;}
	.st5{fill:#FFFFFF;}
	.st6{fill:#E3ECEB;}
	.st7{fill:none;stroke:#3A6576;stroke-miterlimit:10;}
	.st8{fill:#00CDAA;}
	.st9{fill:#FFFFFF;stroke:#3A6576;stroke-miterlimit:10;}
	.st10{fill:none;stroke:#3A6576;stroke-linecap:round;stroke-miterlimit:10;}
	.st11{fill:#BAF2EB;}
	.st12{fill:#E9EEF2;}
	.st13{fill:#E8EDF0;}
	.st14{fill:#FCFCFC;stroke:#3A6576;stroke-miterlimit:10;}
</style>
<g>
	<g>
		<path class="st0" d="M153,49.3h-1.5c-0.3-0.2-0.7-0.4-1.1-0.5c0.1-0.3,0.1-0.7,0.1-1c0-3.3-2.7-6-6-6c-3.2,0-5.9,2.6-6,5.8
			c-0.5-0.5-1.2-0.8-2-0.8c-1.5,0-2.7,1.1-2.9,2.5H129"/>
	</g>
	<g>
		<g>
			<line class="st1" x1="111.5" y1="17.8" x2="110" y2="17.8"/>
			<line class="st2" x1="109" y1="17.8" x2="34.5" y2="17.8"/>
			<polyline class="st1" points="34,17.8 32.5,17.8 32.5,19.3 			"/>
			<line class="st3" x1="32.5" y1="20.4" x2="32.5" y2="65.3"/>
			<line class="st1" x1="32.5" y1="65.8" x2="32.5" y2="67.3"/>
		</g>
	</g>
	<path class="st4" d="M127.2,24.3H42.7c-2.8,0-5,2.2-5,5v53h94.5v-53C132.2,26.6,129.9,24.3,127.2,24.3z"/>
	<path class="st5" d="M127,28.3H42.8c-0.6,0-1,0.4-1,1v52.5H128V29.3C128,28.8,127.6,28.3,127,28.3z"/>
	<path class="st6" d="M134.9,87.8h-100c-2.8,0-5-2.2-5-5v3c0,2.8,2.2,5,5,5h100c2.8,0,5-2.2,5-5v-3
		C139.9,85.6,137.7,87.8,134.9,87.8z"/>
	<path class="st7" d="M134.9,90.8h-100c-2.8,0-5-2.2-5-5v-3.5h110v3.5C139.9,88.6,137.7,90.8,134.9,90.8z"/>
	<circle class="st8" cx="47" cy="32.3" r="1.5"/>
	<circle class="st8" cx="53" cy="32.3" r="1.5"/>
	<circle class="st8" cx="59" cy="32.3" r="1.5"/>
	<path class="st9" d="M120.5,15.8h27c1.1,0,2,0.9,2,1.9v19c0,1-0.9,1.9-2,1.9h-3v4.7l-5-4.7h-19c-1.1,0-2-0.9-2-1.9v-19
		C118.5,16.7,119.4,15.8,120.5,15.8z"/>
	<path class="st9" d="M136.5,12.8h-27c-1.1,0-2,0.9-2,1.9v19c0,1,0.9,1.9,2,1.9h3v4.7l5-4.7h19c1.1,0,2-0.9,2-1.9v-19
		C138.5,13.7,137.6,12.8,136.5,12.8z"/>
	<line class="st10" x1="13.5" y1="91.3" x2="19.5" y2="91.3"/>
	<circle class="st8" cx="142.5" cy="25.8" r="2"/>
	<line class="st10" x1="148.5" y1="91.3" x2="154.5" y2="91.3"/>
	<line class="st10" x1="21.5" y1="91.3" x2="146.5" y2="91.3"/>
	<rect x="75" y="84.3" class="st6" width="20" height="1"/>
	<g>
		<path class="st0" d="M4,64.3h1.5c0.3-0.2,0.7-0.4,1.1-0.5c-0.1-0.3-0.1-0.7-0.1-1c0-3.3,2.7-6,6-6c3.2,0,5.9,2.6,6,5.8
			c0.5-0.5,1.2-0.8,2-0.8c1.5,0,2.7,1.1,2.9,2.5H28"/>
	</g>
	<circle class="st11" cx="60.2" cy="5.6" r="5.2"/>
	<circle class="st12" cx="23.2" cy="12.6" r="1.2"/>
	<circle class="st12" cx="141.2" cy="51.6" r="1.2"/>
	<circle class="st12" cx="87.8" cy="8.6" r="2.8"/>
	<circle class="st12" cx="142.2" cy="74.1" r="1.5"/>
	<g>
		<rect x="143.5" y="63" class="st11" width="8.5" height="3.1"/>
		
			<rect x="143.5" y="63" transform="matrix(6.123234e-17 -1 1 6.123234e-17 83.1667 212.3333)" class="st11" width="8.5" height="3.1"/>
	</g>
	<g>
		<rect x="136" y="1.4" class="st13" width="5" height="1.8"/>
		
			<rect x="136" y="1.4" transform="matrix(6.123234e-17 -1 1 6.123234e-17 136.1667 140.8333)" class="st13" width="5" height="1.8"/>
	</g>
	<line class="st9" x1="61.3" y1="57.3" x2="110.3" y2="57.3"/>
	<path class="st9" d="M108.3,44.3v6c0,1.7-1.4,3-3,3h-39c-1.7,0-3-1.3-3-3v-6"/>
	<path class="st9" d="M108.3,70.3v-6c0-1.7-1.4-3-3-3h-39c-1.7,0-3,1.4-3,3v6"/>
	<path class="st9" d="M88.5,75.1h-5.7c-6.6,0-12-5.4-12-12v-12c0-2.8,2.2-5,5-5h19.7c2.8,0,5,2.2,5,5v12
		C100.5,69.7,95.1,75.1,88.5,75.1z"/>
	<path class="st8" d="M86.2,71.6h-1c-5.5,0-10-4.5-10-10v-12h21v12C96.2,67.1,91.7,71.6,86.2,71.6z"/>
	<path class="st7" d="M77.7,43.8c0-4.4,3.6-8,8-8c4.4,0,8,3.6,8,8"/>
	<circle class="st8" cx="85.7" cy="41.3" r="2"/>
	<path class="st8" d="M130.7,21.3l-0.9,0.3c-0.2,0.1-0.5,0-0.6-0.3c-0.1-0.2,0-0.5,0.3-0.6l0.9-0.3c0.2-0.1,0.5,0,0.6,0.3
		C131.1,21,130.9,21.3,130.7,21.3z"/>
	<path class="st8" d="M116.5,20.6c0.2,0.1,0.4,0.3,0.3,0.6c-0.1,0.2-0.3,0.3-0.6,0.3l-0.9-0.3c-0.2-0.1-0.4-0.3-0.3-0.6
		c0.1-0.2,0.3-0.4,0.6-0.3L116.5,20.6z"/>
	<path class="st8" d="M127.3,16.6c0.1-0.2,0.4-0.2,0.7-0.1c0.2,0.1,0.2,0.4,0.1,0.7l-0.6,0.7c-0.1,0.2-0.4,0.2-0.7,0.1
		c-0.2-0.1-0.2-0.5-0.1-0.7L127.3,16.6z"/>
	<path class="st8" d="M118.6,17.9l-0.6-0.8c-0.1-0.2-0.1-0.5,0.1-0.7c0.2-0.1,0.5-0.1,0.7,0.1l0.6,0.7c0.1,0.2,0.1,0.5-0.1,0.7
		C119,18.1,118.7,18.1,118.6,17.9z"/>
	<path class="st8" d="M122.6,16.3v-0.9c0-0.3,0.2-0.5,0.5-0.5s0.5,0.2,0.5,0.5v0.9c0,0.3-0.2,0.5-0.5,0.5S122.6,16.6,122.6,16.3z"/>
	<path class="st8" d="M127.7,23.3V28h-9.3v-4.7c0-2.6,2.1-4.7,4.7-4.7C125.6,18.6,127.7,20.7,127.7,23.3z"/>
	<path class="st8" d="M117.5,29.8v-0.9h11.2v0.9c0,0.5-0.4,0.9-0.9,0.9h-9.3C117.9,30.8,117.5,30.3,117.5,29.8z"/>
	<path class="st4" d="M54,82.3H28c-1.6,0-3-1.4-3-3v-16c0-1.6,1.4-3,3-3h26c1.7,0,3,1.4,3,3v16C57,81,55.7,82.3,54,82.3z"/>
	<path class="st14" d="M41,70.3l-16,9c0,1.6,1.4,3,3,3h26c1.7,0,3-1.4,3-3L41,70.3z"/>
	<path class="st14" d="M36.6,73.3L25,63.3c0-1.6,1.4-3,3-3h26c1.7,0,3,1.4,3,3l-11.6,10C43.1,76,38.9,76,36.6,73.3z"/>
	<path class="st11" d="M21,29.8c0-1.7-1.3-3-2.9-3c-0.8,0-1.5,0.3-2.1,0.9c-0.5-0.6-1.3-0.9-2.1-0.9c-1.6,0-2.9,1.4-2.9,3
		c0,0.1,0,0.1,0,0.1c0,0,0,0,0,0c0,0.3,0.1,0.6,0.2,1c0,0,0,0,0,0c0.9,2.1,4.3,4.6,4.4,4.7c0.1,0.1,0.2,0.1,0.3,0.1
		c0.1,0,0.2,0,0.3-0.1c0.1-0.1,3-2.2,4.2-4.2c0-0.1,0.1-0.1,0.1-0.2c0,0,0,0,0-0.1l0,0c0,0,0,0,0,0c0.1-0.1,0.1-0.3,0.2-0.4
		C21,30.6,21,30.3,21,30c0,0,0,0,0-0.1C21,29.9,21,29.9,21,29.8z"/>
</g>
</svg>
