<?xml version="1.0" encoding="utf-8"?>
<!-- Generator: Adobe Illustrator 22.0.1, SVG Export Plug-In . SVG Version: 6.00 Build 0)  -->
<svg version="1.1" id="图层_1" xmlns="http://www.w3.org/2000/svg" xmlns:xlink="http://www.w3.org/1999/xlink" x="0px" y="0px"
	 viewBox="0 0 162 92" style="enable-background:new 0 0 162 92;" xml:space="preserve">
<style type="text/css">
	.st0{fill:none;stroke:#E8EDF0;stroke-linecap:round;stroke-linejoin:round;stroke-miterlimit:10;}
	.st1{fill:none;stroke:#E7EDED;stroke-miterlimit:10;stroke-dasharray:3,1;}
	.st2{fill:none;stroke:#3A6576;stroke-linecap:round;stroke-miterlimit:10;}
	.st3{fill:none;stroke:#3A6576;stroke-miterlimit:10;}
	.st4{fill:#FFFFFF;stroke:#3A6576;stroke-miterlimit:10;}
	.st5{fill:#E3ECEB;}
	.st6{fill:#FCFCFC;stroke:#3A6576;stroke-miterlimit:10;}
	.st7{fill:#E7EDED;stroke:#3A6576;stroke-miterlimit:10;}
	.st8{fill:#E3ECEB;stroke:#3A6576;stroke-miterlimit:10;}
	.st9{fill:#00CDAA;}
	.st10{fill:#BAF2EB;}
	.st11{fill:#E9EEF2;}
	.st12{fill:#E8EDF0;}
</style>
<g>
	<g>
		<path class="st0" d="M125.8,31.3h-1.5c-0.3-0.2-0.7-0.4-1.1-0.5c0.1-0.3,0.1-0.7,0.1-1c0-3.3-2.7-6-6-6c-3.2,0-5.9,2.6-6,5.8
			c-0.5-0.5-1.2-0.8-2-0.8c-1.5,0-2.7,1.1-2.9,2.5h-4.6"/>
	</g>
	<g>
		<path class="st0" d="M38.8,62.3h1.5c0.3-0.2,0.7-0.4,1.1-0.5c-0.1-0.3-0.1-0.7-0.1-1c0-3.3,2.7-6,6-6c3.2,0,5.9,2.6,6,5.8
			c0.5-0.5,1.2-0.8,2-0.8c1.5,0,2.7,1.1,2.9,2.5h4.6"/>
	</g>
	<path class="st1" d="M114.7,56.3H82.9c-1.1,0-2.1-0.9-2.1-2.1V39.4c0-1.1,0.9-2.1,2.1-2.1h31.8c1.1,0,2.1,0.9,2.1,2.1v14.8
		C116.8,55.3,115.9,56.3,114.7,56.3z"/>
	<line class="st2" x1="37.8" y1="91.3" x2="43.8" y2="91.3"/>
	<line class="st2" x1="118.8" y1="91.3" x2="124.8" y2="91.3"/>
	<line class="st2" x1="45.8" y1="91.3" x2="116.8" y2="91.3"/>
	<line class="st3" x1="81.2" y1="11.3" x2="81.2" y2="25.3"/>
	<g>
		<path class="st4" d="M106.7,42.1l-5,1c0,0,0,0,0,0V32.3c0,0,0,0,0,0l5,1c0,0,0,0,0,0L106.7,42.1C106.7,42.1,106.7,42.1,106.7,42.1
			z"/>
		<path class="st4" d="M55.7,42.1l5,1c0,0,0,0,0,0V32.3c0,0,0,0,0,0l-5,1c0,0,0,0,0,0L55.7,42.1C55.7,42.1,55.7,42.1,55.7,42.1z"/>
	</g>
	<circle class="st4" cx="81.2" cy="23.8" r="6.5"/>
	<path class="st4" d="M101.7,53.3h-41c-1.6,0-3-1.3-3-3v-24c0-1.6,1.4-3,3-3h41c1.7,0,3,1.4,3,3v24
		C104.7,51.9,103.3,53.3,101.7,53.3z"/>
	<path class="st5" d="M101.7,50.7H60.6c-1.4,0-2.4-1.1-2.4-2.4v2c0,1.4,1.1,2.4,2.4,2.4h41.1c1.4,0,2.4-1.1,2.4-2.4v-2
		C104.2,49.6,103.1,50.7,101.7,50.7z"/>
	<path class="st6" d="M93.4,36.8H68.9c-2.1,0-3.8-1.7-3.8-3.7v0c0-2.1,1.7-3.7,3.8-3.7h24.5c2.1,0,3.7,1.7,3.7,3.7v0
		C97.2,35.1,95.5,36.8,93.4,36.8z"/>
	<path class="st7" d="M97.2,33c0-2.1-1.8-3.8-4-3.8h-24c-2.2,0-4,1.7-4,3.8"/>
	<circle class="st4" cx="81.2" cy="10.3" r="2"/>
	<rect x="78.7" y="53.3" class="st8" width="5" height="6"/>
	<g>
		<rect x="70.3" y="76.3" class="st8" width="4" height="10"/>
		<path class="st4" d="M74.3,86.3h-4c-1.7,0-3,1.3-3,3v2h10v-2C77.3,87.6,76,86.3,74.3,86.3z"/>
		<rect x="88.1" y="76.3" class="st8" width="4" height="10"/>
		<path class="st4" d="M92.1,86.3h-4c-1.7,0-3,1.3-3,3v2h10v-2C95.1,87.6,93.7,86.3,92.1,86.3z"/>
	</g>
	<g>
		<g>
			<g>
				<path class="st8" d="M54.9,74.3h-2c0-7.2,5.8-13,13-13h2v2h-2C59.9,63.3,54.9,68.2,54.9,74.3z"/>
			</g>
			<circle class="st4" cx="53.9" cy="73.3" r="3.5"/>
		</g>
		<g>
			<g>
				<path class="st8" d="M107.4,74.3h2c0-7.2-5.8-13-13-13h-2v2h2C102.5,63.3,107.4,68.2,107.4,74.3z"/>
			</g>
			<circle class="st4" cx="108.4" cy="73.3" r="3.5"/>
		</g>
	</g>
	<path class="st4" d="M81.2,80.3L81.2,80.3c-9.1,0-16.5-7.4-16.5-16.5v-4.5h33v4.5C97.7,72.9,90.3,80.3,81.2,80.3z"/>
	<path class="st9" d="M81.2,76.8L81.2,76.8c-6.1,0-11-4.9-11-11v-3h22v3C92.2,71.8,87.3,76.8,81.2,76.8z"/>
	<path class="st4" d="M65.9,25.2l-7.8-13.6c-1-1.7-2.5-1.7-3.5,0l-7.8,13.6c-1,1.7-0.2,3,1.7,3h15.7C66.1,28.2,66.9,26.8,65.9,25.2z
		"/>
	<path class="st9" d="M57.4,25.3c-0.3,0.3-0.6,0.4-1.1,0.4c-0.4,0-0.8-0.1-1.1-0.4c-0.3-0.3-0.4-0.6-0.4-1c0-0.4,0.1-0.8,0.4-1.1
		c0.3-0.3,0.6-0.4,1.1-0.4c0.4,0,0.8,0.1,1.1,0.4c0.3,0.3,0.4,0.6,0.4,1.1C57.9,24.7,57.7,25,57.4,25.3z"/>
	<path class="st9" d="M55.3,15.4c0.3-0.3,0.6-0.5,1.1-0.5c0.4,0,0.8,0.2,1.1,0.5c0.3,0.3,0.4,0.7,0.4,1.1c0,0.4-0.6,3.3-0.8,5.3
		h-1.4c-0.2-2.1-0.8-4.9-0.8-5.3C54.9,16.1,55,15.7,55.3,15.4z"/>
	<g>
		<rect x="69.2" y="43.6" class="st9" width="4" height="5.1"/>
		<rect x="74.2" y="42.3" class="st9" width="4" height="6.4"/>
		<rect x="79.2" y="39.8" class="st9" width="4" height="9"/>
		<rect x="84.2" y="41" class="st9" width="4" height="7.7"/>
		<rect x="89.2" y="42.3" class="st9" width="4" height="6.4"/>
	</g>
	<circle class="st10" cx="99.1" cy="12.5" r="5.2"/>
	<circle class="st11" cx="45.1" cy="68.5" r="1.2"/>
	<circle class="st11" cx="117.1" cy="61.5" r="1.2"/>
	<circle class="st11" cx="125.6" cy="40.5" r="2.8"/>
	<circle class="st11" cx="107.8" cy="81.3" r="1.5"/>
	<g>
		<rect x="44.3" y="78.9" class="st12" width="5" height="1.8"/>
		
			<rect x="44.3" y="78.9" transform="matrix(6.123234e-17 -1 1 6.123234e-17 -32.9275 126.5941)" class="st12" width="5" height="1.8"/>
	</g>
	<path class="st10" d="M47.9,43.8c0-1.7-1.3-3-2.9-3c-0.8,0-1.5,0.3-2.1,0.9c-0.5-0.6-1.3-0.9-2.1-0.9c-1.6,0-2.9,1.4-2.9,3
		c0,0.1,0,0.1,0,0.1c0,0,0,0,0,0c0,0.3,0.1,0.6,0.2,1c0,0,0,0,0,0c0.9,2.1,4.3,4.6,4.4,4.7c0.1,0.1,0.2,0.1,0.3,0.1
		c0.1,0,0.2,0,0.3-0.1c0.1-0.1,3-2.2,4.2-4.2c0-0.1,0.1-0.1,0.1-0.2c0,0,0,0,0-0.1l0,0c0,0,0,0,0,0c0.1-0.1,0.1-0.3,0.2-0.4
		c0.1-0.3,0.2-0.6,0.2-0.9c0,0,0,0,0-0.1C47.8,43.9,47.9,43.8,47.9,43.8z"/>
	<path class="st10" d="M123.4,72.6c0.9,0,1.6-0.5,1.9-1.3c0.3-0.8,0.1-1.7-0.5-2.3c-0.6-0.6-1.5-0.8-2.3-0.5
		c-0.8,0.3-1.3,1.1-1.3,1.9C121.3,71.7,122.3,72.6,123.4,72.6z M118.5,70.5c0-0.3,0-0.7,0.1-1c0.6-0.1,1.1-0.4,1.4-1
		c0.3-0.6,0.3-1.2,0.1-1.8c0.5-0.5,1.1-0.9,1.8-1.1c0.3,0.5,0.9,0.8,1.5,0.8c0.6,0,1.2-0.3,1.5-0.8c0.7,0.2,1.3,0.6,1.8,1.1
		c-0.2,0.6-0.2,1.2,0.1,1.7c0.3,0.5,0.8,0.9,1.4,0.9c0.1,0.7,0.1,1.5,0,2.3c-0.6,0.1-1,0.4-1.3,0.9c-0.3,0.5-0.3,1.1-0.1,1.6
		c-0.5,0.5-1.2,0.9-1.9,1.1c-0.3-0.4-0.9-0.7-1.4-0.7c-0.6,0-1.1,0.3-1.4,0.7c-0.7-0.2-1.4-0.6-1.9-1.1c0.2-0.5,0.2-1.2-0.1-1.7
		c-0.3-0.5-0.8-0.9-1.4-0.9C118.6,71.3,118.5,70.9,118.5,70.5z"/>
</g>
</svg>
